<svg class="poloto" width="800" height="500" viewBox="0 0 800 500" xmlns="http://www.w3.org/2000/svg"><style>.poloto{stroke-linecap:round;stroke-linejoin:round;font-family:Roboto,sans-serif;font-size:16px;}.poloto_background{fill:AliceBlue;}.poloto_scatter{stroke-width:7}.poloto_tick_line{stroke:gray;stroke-width:0.5}.poloto_line{stroke-width:2}.poloto_text{fill: black;}.poloto_axis_lines{stroke: black;stroke-width:3;fill:none;stroke-dasharray:none}.poloto_title{font-size:24px;dominant-baseline:start;text-anchor:middle;}.poloto_xname{font-size:24px;dominant-baseline:start;text-anchor:middle;}.poloto_yname{font-size:24px;dominant-baseline:start;text-anchor:middle;}.poloto_legend_text{font-size:20px;dominant-baseline:middle;text-anchor:start;}.poloto0stroke{stroke:blue;}.poloto1stroke{stroke:red;}.poloto2stroke{stroke:green;}.poloto3stroke{stroke:gold;}.poloto4stroke{stroke:aqua;}.poloto5stroke{stroke:lime;}.poloto6stroke{stroke:orange;}.poloto7stroke{stroke:chocolate;}.poloto0fill{fill:blue;}.poloto1fill{fill:red;}.poloto2fill{fill:green;}.poloto3fill{fill:gold;}.poloto4fill{fill:aqua;}.poloto5fill{fill:lime;}.poloto6fill{fill:orange;}.poloto7fill{fill:chocolate;}</style><circle  r="1e5" class="poloto_background" /><text  class="poloto_text poloto_legend_text" x="675" y="100" >naive</text><line  class="poloto_line poloto_legend_icon poloto0stroke poloto0legend" stroke="black" x1="680" x2="730" y1="81.25" y2="81.25" /><path  class="poloto_line poloto0stroke" fill="none" stroke="black" d=" M 150.00 400.00 L 151.58 399.05 L 153.15 398.11 L 154.73 397.16 L 156.31 396.21 L 156.31 396.21 L 156.31 396.21 L 157.89 395.27 L 157.89 395.27 L 159.46 394.32 L 159.46 394.32 L 161.04 393.38 L 161.04 393.38 L 162.62 392.43 L 162.62 392.43 L 164.20 391.48 L 164.20 391.48 L 164.20 391.48 L 165.77 390.54 L 167.35 389.59 L 167.35 389.59 L 167.35 389.59 L 168.93 388.64 L 168.93 388.64 L 170.50 387.70 L 170.50 387.70 L 172.08 386.75 L 175.24 384.86 L 175.24 384.86 L 176.81 383.91 L 178.39 382.97 L 178.39 382.97 L 178.39 382.97 L 179.97 382.02 L 183.12 380.13 L 183.12 380.13 L 184.70 379.18 L 186.28 378.23 L 187.85 377.29 L 191.01 375.39 L 191.01 375.39 L 191.01 375.39 L 191.01 375.39 L 191.01 375.39 L 192.59 374.45 L 192.59 374.45 L 192.59 374.45 L 192.59 374.45 L 192.59 374.45 L 192.59 374.45 L 192.59 374.45 L 192.59 374.45 L 197.32 371.61 L 198.90 370.66 L 202.05 368.77 L 205.21 366.88 L 209.94 364.04 L 211.51 363.09 L 213.09 362.15 L 214.67 361.20 L 216.25 360.25 L 217.82 359.31 L 220.98 357.41 L 220.98 357.41 L 228.86 352.68 L 232.02 350.79 L 246.21 342.27 L 257.26 335.65 L 263.56 331.86 L 299.84 310.09 L 315.62 300.63 L 336.12 288.33 L 340.85 285.49 L 342.43 284.54 L 344.01 283.60 L 369.24 268.45 L 419.72 238.17 L 479.65 202.21 L 650.00 100.00" /><text  class="poloto_text poloto_legend_text" x="675" y="150" >by_degree</text><line  class="poloto_line poloto_legend_icon poloto1stroke poloto1legend" stroke="black" x1="680" x2="730" y1="131.25" y2="131.25" /><path  class="poloto_line poloto1stroke" fill="none" stroke="black" d=" M 150.00 400.00 L 151.58 399.05 L 153.15 398.11 L 154.73 397.16 L 156.31 397.16 L 156.31 397.16 L 156.31 396.21 L 157.89 396.21 L 157.89 395.27 L 159.46 392.43 L 159.46 394.32 L 161.04 393.38 L 161.04 395.27 L 162.62 393.38 L 162.62 393.38 L 164.20 391.48 L 164.20 392.43 L 164.20 393.38 L 165.77 393.38 L 167.35 389.59 L 167.35 391.48 L 167.35 391.48 L 168.93 387.70 L 168.93 389.59 L 170.50 392.43 L 170.50 387.70 L 172.08 390.54 L 175.24 385.80 L 175.24 386.75 L 176.81 382.02 L 178.39 386.75 L 178.39 386.75 L 178.39 384.86 L 179.97 380.13 L 183.12 380.13 L 183.12 378.23 L 184.70 382.02 L 186.28 380.13 L 187.85 379.18 L 191.01 375.39 L 191.01 375.39 L 191.01 379.18 L 191.01 375.39 L 191.01 375.39 L 192.59 374.45 L 192.59 379.18 L 192.59 374.45 L 192.59 374.45 L 192.59 374.45 L 192.59 374.45 L 192.59 374.45 L 192.59 376.34 L 197.32 373.50 L 198.90 375.39 L 202.05 376.34 L 205.21 371.61 L 209.94 373.50 L 211.51 364.98 L 213.09 363.09 L 214.67 361.20 L 216.25 361.20 L 217.82 362.15 L 220.98 357.41 L 220.98 357.41 L 228.86 352.68 L 232.02 353.63 L 246.21 342.27 L 257.26 336.59 L 263.56 334.70 L 299.84 315.77 L 315.62 309.15 L 336.12 287.38 L 340.85 289.27 L 342.43 287.38 L 344.01 289.27 L 369.24 276.97 L 419.72 243.85 L 479.65 202.21 L 650.00 107.57" /><text  class="poloto_text poloto_legend_text" x="675" y="200" >dsatur</text><line  class="poloto_line poloto_legend_icon poloto2stroke poloto2legend" stroke="black" x1="680" x2="730" y1="181.25" y2="181.25" /><path  class="poloto_line poloto2stroke" fill="none" stroke="black" d=" M 150.00 400.00 L 151.58 399.05 L 153.15 398.11 L 154.73 397.16 L 156.31 399.05 L 156.31 398.11 L 156.31 396.21 L 157.89 396.21 L 157.89 395.27 L 159.46 394.32 L 159.46 394.32 L 161.04 393.38 L 161.04 395.27 L 162.62 393.38 L 162.62 393.38 L 164.20 391.48 L 164.20 397.16 L 164.20 394.32 L 165.77 394.32 L 167.35 390.54 L 167.35 390.54 L 167.35 391.48 L 168.93 390.54 L 168.93 392.43 L 170.50 393.38 L 170.50 390.54 L 172.08 393.38 L 175.24 388.64 L 175.24 388.64 L 176.81 387.70 L 178.39 387.70 L 178.39 387.70 L 178.39 384.86 L 179.97 385.80 L 183.12 384.86 L 183.12 383.91 L 184.70 382.02 L 186.28 380.13 L 187.85 380.13 L 191.01 375.39 L 191.01 375.39 L 191.01 381.07 L 191.01 375.39 L 191.01 375.39 L 192.59 374.45 L 192.59 381.07 L 192.59 374.45 L 192.59 374.45 L 192.59 374.45 L 192.59 374.45 L 192.59 374.45 L 192.59 380.13 L 197.32 374.45 L 198.90 376.34 L 202.05 377.29 L 205.21 379.18 L 209.94 384.86 L 211.51 368.77 L 213.09 364.04 L 214.67 364.04 L 216.25 364.98 L 217.82 364.04 L 220.98 357.41 L 220.98 357.41 L 228.86 352.68 L 232.02 356.47 L 246.21 342.27 L 257.26 342.27 L 263.56 334.70 L 299.84 318.61 L 315.62 320.50 L 336.12 294.95 L 340.85 297.79 L 342.43 296.85 L 344.01 295.90 L 369.24 278.86 L 419.72 249.53 L 479.65 281.70 L 650.00 118.93" /><text  class="poloto_text poloto_legend_text" x="675" y="250" >rlf</text><line  class="poloto_line poloto_legend_icon poloto3stroke poloto3legend" stroke="black" x1="680" x2="730" y1="231.25" y2="231.25" /><path  class="poloto_line poloto3stroke" fill="none" stroke="black" d=" M 150.00 400.00 L 151.58 399.05 L 153.15 398.11 L 154.73 397.16 L 156.31 399.05 L 156.31 398.11 L 156.31 396.21 L 157.89 396.21 L 157.89 395.27 L 159.46 395.27 L 159.46 394.32 L 161.04 393.38 L 161.04 396.21 L 162.62 393.38 L 162.62 393.38 L 164.20 394.32 L 164.20 396.21 L 164.20 395.27 L 165.77 396.21 L 167.35 391.48 L 167.35 391.48 L 167.35 391.48 L 168.93 391.48 L 168.93 393.38 L 170.50 399.05 L 170.50 390.54 L 172.08 399.05 L 175.24 390.54 L 175.24 389.59 L 176.81 388.64 L 178.39 388.64 L 178.39 387.70 L 178.39 384.86 L 179.97 387.70 L 183.12 386.75 L 183.12 385.80 L 184.70 384.86 L 186.28 380.13 L 187.85 380.13 L 191.01 375.39 L 191.01 375.39 L 191.01 382.02 L 191.01 375.39 L 191.01 375.39 L 192.59 374.45 L 192.59 382.02 L 192.59 374.45 L 192.59 374.45 L 192.59 374.45 L 192.59 374.45 L 192.59 374.45 L 192.59 381.07 L 197.32 374.45 L 198.90 377.29 L 202.05 377.29 L 205.21 381.07 L 209.94 377.29 L 211.51 371.61 L 213.09 364.04 L 214.67 367.82 L 216.25 368.77 L 217.82 368.77 L 220.98 357.41 L 220.98 357.41 L 228.86 352.68 L 232.02 356.47 L 246.21 342.27 L 257.26 347.95 L 263.56 334.70 L 299.84 325.24 L 315.62 319.56 L 336.12 304.42 L 340.85 304.42 L 342.43 303.47 L 344.01 303.47 L 369.24 278.86 L 419.72 258.04 L 479.65 288.33 L 650.00 141.64" /><text  class="poloto_labels poloto_text poloto_title" x="400" y="37.5" >colors vs naive</text><text  class="poloto_labels poloto_text poloto_xname" x="400" y="481.25" >naive colors</text><text  class="poloto_labels poloto_text poloto_yname" transform="rotate(-90,37.5,250)" x="37.5" y="250" >colors</text><text  class="poloto_tick_labels poloto_text" dominant-baseline="middle" text-anchor="start" x="150" y="70" ></text><line  class="poloto_axis_lines" stroke="black" x1="150" x2="144" y1="356.4668769716088" y2="356.4668769716088" /><text  class="poloto_tick_labels poloto_text" dominant-baseline="middle" text-anchor="end" x="135" y="356.4668769716088" >50</text><line  class="poloto_axis_lines" stroke="black" x1="150" x2="144" y1="309.1482649842271" y2="309.1482649842271" /><text  class="poloto_tick_labels poloto_text" dominant-baseline="middle" text-anchor="end" x="135" y="309.1482649842271" >100</text><line  class="poloto_axis_lines" stroke="black" x1="150" x2="144" y1="261.8296529968454" y2="261.8296529968454" /><text  class="poloto_tick_labels poloto_text" dominant-baseline="middle" text-anchor="end" x="135" y="261.8296529968454" >150</text><line  class="poloto_axis_lines" stroke="black" x1="150" x2="144" y1="214.51104100946372" y2="214.51104100946372" /><text  class="poloto_tick_labels poloto_text" dominant-baseline="middle" text-anchor="end" x="135" y="214.51104100946372" >200</text><line  class="poloto_axis_lines" stroke="black" x1="150" x2="144" y1="167.19242902208202" y2="167.19242902208202" /><text  class="poloto_tick_labels poloto_text" dominant-baseline="middle" text-anchor="end" x="135" y="167.19242902208202" >250</text><line  class="poloto_axis_lines" stroke="black" x1="150" x2="144" y1="119.87381703470032" y2="119.87381703470032" /><text  class="poloto_tick_labels poloto_text" dominant-baseline="middle" text-anchor="end" x="135" y="119.87381703470032" >300</text><text  class="poloto_tick_labels poloto_text" dominant-baseline="middle" text-anchor="start" x="440.00000000000006" y="70" ></text><line  class="poloto_axis_lines" stroke="black" x1="222.55520504731862" x2="222.55520504731862" y1="400" y2="405" /><text  class="poloto_tick_labels poloto_text" dominant-baseline="start" text-anchor="middle" x="222.55520504731862" y="430" >50</text><line  class="poloto_axis_lines" stroke="black" x1="301.4195583596214" x2="301.4195583596214" y1="400" y2="405" /><text  class="poloto_tick_labels poloto_text" dominant-baseline="start" text-anchor="middle" x="301.4195583596214" y="430" >100</text><line  class="poloto_axis_lines" stroke="black" x1="380.2839116719243" x2="380.2839116719243" y1="400" y2="405" /><text  class="poloto_tick_labels poloto_text" dominant-baseline="start" text-anchor="middle" x="380.2839116719243" y="430" >150</text><line  class="poloto_axis_lines" stroke="black" x1="459.1482649842271" x2="459.1482649842271" y1="400" y2="405" /><text  class="poloto_tick_labels poloto_text" dominant-baseline="start" text-anchor="middle" x="459.1482649842271" y="430" >200</text><line  class="poloto_axis_lines" stroke="black" x1="538.01261829653" x2="538.01261829653" y1="400" y2="405" /><text  class="poloto_tick_labels poloto_text" dominant-baseline="start" text-anchor="middle" x="538.01261829653" y="430" >250</text><line  class="poloto_axis_lines" stroke="black" x1="616.8769716088327" x2="616.8769716088327" y1="400" y2="405" /><text  class="poloto_tick_labels poloto_text" dominant-baseline="start" text-anchor="middle" x="616.8769716088327" y="430" >300</text><path  stroke="black" fill="none" class="poloto_axis_lines" style="stroke-dasharray:7.886435331230284;stroke-dashoffset:-72.55520504731861;" d=" M 150 400 L 650 400" /><path  stroke="black" fill="none" class="poloto_axis_lines" style="stroke-dasharray:4.73186119873817;stroke-dashoffset:-43.53312302839117;" d=" M 150 400 L 150 100" /></svg>